<svg width="149" height="149" viewBox="0 0 149 149" fill="none" xmlns="http://www.w3.org/2000/svg">
<circle cx="74.5" cy="74.5" r="74.5" fill="#D9D9D9"/>
<path d="M71.1829 99.5817H63.2746C63.1492 100.093 63.0133 100.608 62.8656 101.127C62.1883 103.51 63.5717 105.991 65.9553 106.668C66.3648 106.784 66.7767 106.84 67.1822 106.84C69.1374 106.84 70.9352 105.552 71.4959 103.578C71.7894 102.544 72.0443 101.522 72.2675 100.511C71.8609 100.251 71.4976 99.9375 71.183 99.5818L71.1829 99.5817Z" fill="black"/>
<path d="M64.1029 95.2752H69.9458C70.036 94.7403 70.2071 94.2164 70.4655 93.722C72.1981 90.4097 73.1531 87.4614 73.3166 84.94C73.2106 83.6627 73.0629 82.4316 72.8825 81.2516C72.6698 80.6369 72.3838 80.0522 72.0088 79.4762C71.5202 78.7385 70.8569 78.0272 70.0607 77.3738H62.8848C63.7982 80.6264 64.5388 84.6764 64.5289 89.2523C64.5295 91.1689 64.3976 93.1821 64.1029 95.2751L64.1029 95.2752Z" fill="black"/>
<path d="M98.8591 43.9958C98.9066 44.263 98.8931 44.5278 98.8047 44.7798C98.408 45.9013 96.7234 46.3284 95.0418 45.7337C93.3755 45.1454 92.3406 43.7755 92.7051 42.6605C90.2332 41.9949 87.5044 41.1799 84.9369 40.413C83.3285 43.577 83.9484 47.5431 86.704 50.0427C90.0058 53.0392 95.1116 52.7907 98.1073 49.4896C99.5153 47.9374 100.198 45.9868 100.192 44.0445C99.8363 44.0732 99.3863 44.0545 98.859 43.9959L98.8591 43.9958Z" fill="black"/>
<path d="M90.9631 32.1946C85.2918 31.0461 73.5978 35.2895 75.1773 36.8808C75.356 37.0613 75.7023 37.2083 76.2501 37.3085C81.6331 38.2952 100.376 45.126 101.088 42.8966C101.254 42.3786 101.344 41.8653 101.374 41.3591C101.615 37.1503 97.2897 33.4759 90.9629 32.1945L90.9631 32.1946Z" fill="black"/>
<path d="M105.773 83.0744C113.701 83.0744 120.127 89.5015 120.127 97.429C120.127 105.357 113.701 111.784 105.773 111.784C97.8444 111.784 91.4173 105.357 91.4173 97.429C91.4173 92.4821 93.9209 88.1199 97.7295 85.5387L95.9037 81.7014C90.6778 84.9873 87.2014 90.8009 87.2014 97.4302C87.2014 107.686 95.5164 116 105.773 116C116.028 116 124.342 107.686 124.342 97.4302C124.342 87.1741 116.028 78.8605 105.773 78.8605C103.679 78.8605 101.668 79.212 99.7909 79.8507L101.617 83.6892C102.933 83.2907 104.327 83.0751 105.773 83.0751L105.773 83.0744Z" fill="black"/>
<path d="M43.5698 78.8579C33.313 78.8579 25 87.1723 25 97.4277C25 107.684 33.3144 115.997 43.5698 115.997C48.8104 115.997 53.5406 113.823 56.9166 110.332C59.8363 107.312 61.7387 103.307 62.0786 98.8626H70.6531C70.4287 98.4975 70.243 98.1061 70.1111 97.6872C69.9371 97.13 69.8633 96.5587 69.8785 95.9921H62.0786C61.747 91.6633 59.9347 87.751 57.1428 84.7604C56.2569 83.8117 55.2736 82.9574 54.2085 82.211L54.8771 81.168L56.2388 79.0435L57.7704 76.654H69.0958C68.9593 76.562 68.8216 76.47 68.6798 76.3815C66.0262 74.7005 62.9793 74.0612 62.7702 74.0197C62.7497 74.0167 62.7309 74.0132 62.7116 74.0091C61.1261 73.7244 59.8014 72.7588 59.0437 71.3455C58.5416 70.8609 58.1156 70.3652 57.7523 69.8613C54.484 70.0277 51.9627 71.0759 51.9627 72.3474C51.9627 73.2169 53.141 73.9833 54.9316 74.4338C55.1701 74.4936 55.422 74.5463 55.6804 74.5944L53.591 77.8544L52.9013 78.9302L51.7371 80.7465C49.2709 79.5384 46.5006 78.8569 43.5698 78.8569L43.5698 78.8579ZM43.5698 111.782C35.6416 111.782 29.2151 105.355 29.2151 97.4278C29.2151 89.5001 35.6416 83.0732 43.5698 83.0732C45.6621 83.0732 47.6479 83.5243 49.4408 84.3294L41.5419 96.6532C41.2572 97.0962 41.2384 97.654 41.4904 98.1169C41.7435 98.5786 42.2228 98.8634 42.7501 98.8634H57.8519C57.1324 106.117 51.0129 111.783 43.5699 111.783L43.5698 111.782ZM57.8524 95.9922H45.3744L51.931 85.7637C55.1928 88.1062 57.4341 91.78 57.8524 95.9922Z" fill="black"/>
<path d="M104.046 70.0905C103.531 71.5009 102.175 72.4484 100.674 72.4484C100.254 72.4484 99.8405 72.3745 99.4438 72.2298C99.4274 72.2239 99.4128 72.2175 99.397 72.2116C99.2083 72.3417 99.0226 72.4642 98.8427 72.5732C96.8921 73.7532 95.4548 73.7837 95.2778 73.7855H95.2614C95.2503 73.7849 95.2386 73.7866 95.2269 73.786C95.2181 73.786 95.2104 73.7843 95.2022 73.7843H80.7204C81.2425 74.5706 81.7832 75.5292 82.2637 76.6554H92.4741L82.8238 90.7089C82.1459 93.2207 81.1012 95.8387 79.6873 98.5445C79.6305 98.654 79.5696 98.7607 79.5051 98.8644H79.9504C80.425 98.8644 80.8645 98.6329 81.1334 98.2415L94.976 78.0848L104.474 98.045C104.721 98.5618 105.236 98.8642 105.772 98.8642C105.979 98.8642 106.189 98.8191 106.388 98.7247C107.104 98.3843 107.408 97.5271 107.067 96.8116L97.3266 76.3444C98.168 76.113 99.1986 75.7145 100.329 75.0302C102.809 73.5325 105.717 70.6762 108.166 65.4204C108.501 64.7015 108.19 63.8478 107.471 63.5132C106.753 63.1774 105.899 63.4886 105.564 64.2075V64.2063C105.018 65.3729 104.459 66.3912 103.896 67.2865C103.905 67.307 103.917 67.3258 103.927 67.3463C104.333 68.2164 104.374 69.1908 104.046 70.0908L104.046 70.0905Z" fill="black"/>
<path d="M45.4238 73.116C46.6982 72.584 48.1613 71.8129 49.271 70.866L44.9011 63.8167C44.4827 63.1429 43.5985 62.9355 42.9247 63.3526L39.6715 65.37C38.9977 65.7871 38.7903 66.6725 39.2075 67.3463L43.2709 73.9011C43.3248 73.8847 43.3817 73.8665 43.4414 73.8478C43.9459 73.6867 44.6484 73.4423 45.4236 73.116L45.4238 73.116Z" fill="black"/>
<path d="M44.0498 75.1575L45.3845 77.3102C45.8023 77.9841 46.6871 78.1915 47.3609 77.7743L49.6425 76.3599L50.6146 75.7575C51.2884 75.3398 51.4958 74.455 51.0781 73.7812L50.0351 72.0989C48.0605 73.7149 45.4749 74.6963 44.0499 75.1575L44.0498 75.1575Z" fill="black"/>
<path d="M38.2178 64.1596C38.4791 64.5803 39.0323 64.7104 39.4524 64.4491L42.1975 62.7475C42.6182 62.4867 42.7483 61.933 42.4869 61.5129C42.2262 61.0916 41.6731 60.9621 41.2518 61.2229L40.6799 61.5774L40.2071 60.8151L38.6057 61.8082L39.0786 62.5705L38.5067 62.925C38.086 63.1858 37.9559 63.7389 38.2178 64.1596V64.1596Z" fill="black"/>
<path d="M79.0518 98.2122C81.7764 93.0003 83.0314 88.3533 83.035 84.1646C83.045 81.4739 82.4918 79.013 81.5737 76.8739C78.6054 79.5428 74.952 80.6174 73.5411 80.9555C73.8628 81.8608 74.0556 82.895 74.0632 84.1652C74.0656 86.5218 73.3449 89.7679 71.1019 94.0545C69.9535 96.25 70.8025 98.9611 72.9987 100.109C73.6619 100.456 74.3733 100.621 75.0734 100.621C76.6894 100.62 78.251 99.7439 79.0518 98.2122L79.0518 98.2122Z" fill="black"/>
<path d="M59.6241 70.9125C60.244 72.1354 61.4106 73.0623 62.8666 73.3113L62.866 73.3107V73.3101C63.1432 73.3523 66.3271 74.0443 69.0587 75.7746C70.4696 76.6541 71.7369 77.7655 72.6113 79.0857C72.7923 79.364 72.957 79.6528 73.1099 79.9516C73.2347 79.9235 73.3882 79.8872 73.5716 79.8391C74.0913 79.7032 74.8261 79.487 75.6692 79.1618C77.3161 78.5278 79.3758 77.4778 81.0931 75.8484C80.7351 75.1458 80.339 74.4814 79.9083 73.8643C77.2441 70.0394 73.6395 67.8404 70.6589 66.488C73.3489 63.5959 76.5497 61.0546 79.2316 58.9331C77.1767 56.744 75.9322 55.0091 75.453 54.3001L75.4301 54.2673C74.8934 53.4405 74.7164 52.482 74.9157 51.5439C75.116 50.6064 75.6692 49.8032 76.4731 49.2816C77.0561 48.9031 77.7299 48.7033 78.4231 48.7033C79.6441 48.7033 80.7708 49.315 81.4359 50.3398L81.4541 50.3662L81.4752 50.3972C81.5127 50.4517 81.5812 50.5501 81.6756 50.682C81.9433 51.0517 82.2463 51.446 82.5726 51.8509C82.9529 52.3208 83.4615 52.9226 84.0944 53.6116C84.7289 51.9622 84.7236 50.2354 83.7762 48.9229C81.9282 46.3625 77.4616 44.7694 72.6916 47.6181C66.155 51.5737 62.7138 54.8355 58.2795 61.5252C55.7776 66.0069 57.4668 68.8674 59.6242 70.9123L59.6241 70.9125Z" fill="black"/>
<path d="M82.0142 52.3008C81.5965 51.7834 81.2894 51.3715 81.0932 51.099C80.9947 50.9625 80.9244 50.8606 80.8805 50.7973C80.8588 50.7662 80.8447 50.744 80.8365 50.7322L80.8336 50.7287C79.9705 49.3987 78.1933 49.019 76.8633 49.8826C75.5332 50.7451 75.1536 52.5229 76.0172 53.8529C76.2076 54.1219 83.7123 65.6951 99.6899 71.5557C100.015 71.6741 100.347 71.7303 100.674 71.7303C101.846 71.7303 102.945 71.0079 103.371 69.8436C103.915 68.3542 103.149 66.7054 101.659 66.1622C94.5706 63.5754 89.3253 59.6708 85.8638 56.4194C84.1329 54.7952 82.8509 53.3356 82.0142 52.3015L82.0142 52.3008Z" fill="black"/>
</svg>
