<svg width="149" height="149" viewBox="0 0 149 149" fill="none" xmlns="http://www.w3.org/2000/svg">
<circle cx="74.5" cy="74.5" r="74.5" fill="#D9D9D9"/>
<path d="M68.9492 94.903C67.7272 93.5717 66.6987 92.3125 66.0652 91.5108C65.7617 92.5167 65.3615 93.4505 64.8472 94.2198C64.1236 95.3265 63.2641 96.1794 61.9474 96.8705C60.628 97.5504 58.7561 98.0832 55.9296 98.0865C54.756 98.0872 53.4247 97.9917 51.9271 97.773C49.0974 97.3595 46.468 99.3184 46.0552 102.149C45.6411 104.979 47.6006 107.608 50.4315 108.022C52.3699 108.305 54.1981 108.443 55.929 108.445H55.9561C60.0946 108.445 63.7107 107.623 66.7079 106.069C69.9384 104.413 72.2697 101.957 73.8548 99.3416C72.1504 98.2038 70.4282 96.5035 68.9491 94.9031L68.9492 94.903Z" fill="black"/>
<path d="M62.6345 98.2039L62.6345 98.2039C61.0675 99.0114 58.9526 99.5829 55.9314 99.5865L55.9305 99.5865C54.6757 99.5872 53.2712 99.4852 51.7103 99.2573L51.7102 99.2573C49.7003 98.9636 47.8327 100.355 47.5395 102.366L47.5394 102.367C47.2454 104.376 48.6366 106.244 50.6482 106.538L62.6345 98.2039ZM62.6345 98.2039L62.6445 98.1987M62.6345 98.2039L62.6445 98.1987M62.6445 98.1987C64.2077 97.3782 65.2506 96.3421 66.0986 95.0469C66.239 94.8364 66.3709 94.6182 66.4948 94.3936C66.6126 94.5313 66.7339 94.6718 66.8582 94.8145L66.8403 94.8314L67.8475 95.9212C69.0172 97.1868 70.3867 98.5704 71.8179 99.7069C70.4046 101.677 68.5002 103.465 66.0237 104.734L66.0237 104.734M62.6445 98.1987L66.0237 104.734M66.0237 104.734L66.0175 104.737M66.0237 104.734L66.0175 104.737M66.0175 104.737C63.2689 106.162 59.8975 106.945 55.9561 106.945H55.9301M66.0175 104.737L55.9301 106.945M55.9301 106.945C54.2784 106.943 52.5225 106.811 50.6483 106.538L55.9301 106.945Z" stroke="url(#paint0_linear_405_521)" stroke-opacity="0.2" stroke-width="3"/>
<path d="M81.5468 94.6061C83.3287 93.8772 85.2511 92.8287 86.7063 91.4358C85.8899 89.53 85.0536 87.8295 84.2299 86.328C82.3109 82.8246 80.4706 80.3972 79.1445 78.8731C79.1445 78.781 79.1452 78.6909 79.1445 78.5954C78.9252 75.9958 79.1061 73.2576 79.4917 70.5493C77.6674 69.0742 76.0684 67.179 74.7305 64.9C72.5868 61.2169 71.7392 57.7061 71.4743 56.3661L71.4623 56.3078C71.2622 55.1833 71.5034 54.0846 72.1369 53.1767C72.7704 52.2689 73.7194 51.6632 74.8088 51.4698C75.0494 51.426 75.2945 51.4048 75.5377 51.4048C77.5422 51.4048 79.2553 52.8388 79.6112 54.8143L79.6536 55.0125C79.6927 55.192 79.755 55.4598 79.8478 55.7984C80.0181 56.4286 80.3203 57.4113 80.7907 58.5252C81.0525 59.1521 81.3447 59.7531 81.6608 60.3217C81.9126 59.329 82.1578 58.3775 82.3772 57.4902C83.6946 53.6427 82.5819 48.9524 79.4932 47.5741C79.2176 47.3985 78.9114 47.2606 78.5788 47.1699C78.3767 47.1175 76.5882 46.6424 73.9109 46.6391C70.8275 46.6371 66.4592 47.2905 62.2917 50.1916C58.1156 53.0814 54.4047 58.1694 52.4333 66.1346C51.9893 67.9113 53.0688 69.7103 54.8454 70.155C55.1144 70.2219 55.3855 70.2544 55.6506 70.2544C57.1356 70.2544 58.4868 69.2478 58.8638 67.7428C60.5834 60.9484 63.3666 57.5437 66.0822 55.6318C66.5766 55.2866 67.0776 54.9904 67.5792 54.7339C64.6065 62.503 63.8053 67.858 64.4036 76.7993C64.7403 79.1406 65.5103 80.7754 66.5294 81.9192C66.5931 82.2916 66.8316 83.8548 66.8296 85.8309C66.8422 87.1278 66.7229 88.5758 66.4459 89.9719C66.5738 90.1409 66.8979 90.5657 67.373 91.1561C67.9939 91.9281 68.8667 92.9745 69.8647 94.0613C71.2656 95.6 72.9502 97.2163 74.4697 98.2553C74.8414 97.543 75.1608 96.8253 75.4299 96.1149C75.7692 95.2296 76.0435 94.3503 76.2682 93.4841C76.6353 94.2475 77.0037 95.0606 77.3708 95.938C77.5895 95.8876 77.8586 95.822 78.1733 95.7385C79.0527 95.5053 80.2594 95.1362 81.547 94.606L81.5468 94.6061Z" fill="black"/>
<path d="M80.9789 93.2178L80.9931 93.2606L80.9759 93.219C79.9689 93.6336 79.0106 93.945 78.2378 94.1651C78.0317 93.7046 77.8256 93.2617 77.62 92.834L75.8446 89.1423L74.8162 93.1076C74.6041 93.9252 74.3464 94.7505 74.0292 95.5782L74.0271 95.5836C73.9851 95.6946 73.9417 95.8057 73.897 95.9171C72.9094 95.0732 71.8909 94.0586 70.9739 93.0514L70.9695 93.0466C69.9996 91.9906 69.1487 90.9705 68.5419 90.216L68.5416 90.2157C68.3472 89.9741 68.179 89.7613 68.0402 89.5838C68.2502 88.3008 68.3406 87.0059 68.3296 85.8244C68.3311 83.7411 68.0808 82.0924 68.008 81.6666L67.9356 81.2425L67.6493 80.9212C66.8731 80.0501 66.2043 78.7247 65.8964 76.6411C65.3192 67.9406 66.0953 62.8097 68.9801 55.2699L70.3772 51.6187L66.8964 53.3983C66.3381 53.6838 65.7778 54.0148 65.2234 54.4021L65.2234 54.402L65.2187 54.4053C62.1597 56.559 59.2009 60.2975 57.4096 67.3747L57.4087 67.3783C57.2026 68.2011 56.4629 68.7544 55.6506 68.7544C55.508 68.7544 55.359 68.7369 55.2088 68.6996C54.2358 68.4557 53.6454 67.4709 53.8885 66.4983L53.8893 66.495C55.7896 58.8174 59.322 54.0708 63.1453 51.425L63.1487 51.4226C66.9899 48.7486 71.0278 48.1373 73.909 48.1391C73.9092 48.1391 73.9093 48.1391 73.9095 48.1391C73.9096 48.1391 73.9098 48.1391 73.9099 48.1391C76.3552 48.1422 77.9892 48.5663 78.191 48.6189C78.3733 48.6694 78.5388 48.7446 78.6873 48.8392L78.7808 48.8987L78.882 48.9439C79.8893 49.3934 80.7174 50.4553 81.1407 52.0021C81.4356 53.0799 81.5034 54.3028 81.3225 55.5045C81.3132 55.471 81.3043 55.4385 81.2958 55.407L81.2945 55.402C81.2102 55.0946 81.1543 54.8539 81.1198 54.6958C81.1196 54.695 81.1195 54.6942 81.1193 54.6934L81.0827 54.5224C80.5881 51.8476 78.261 49.9048 75.5377 49.9048C75.209 49.9048 74.875 49.9333 74.5435 49.9934C73.0639 50.2569 71.7678 51.0845 70.9068 52.3183L70.9068 52.3184C70.0415 53.5584 69.717 55.0616 69.9855 56.5706L69.9889 56.5896L69.9928 56.6084L70.0037 56.6621C70.2879 58.0973 71.1792 61.7804 73.4342 65.6546L73.437 65.6594C74.6969 67.8057 76.1894 69.6545 77.8956 71.1633C77.5799 73.6575 77.443 76.2024 77.6448 78.6611C77.6448 78.6968 77.6448 78.7312 77.6447 78.7686C77.6446 78.8004 77.6445 78.8344 77.6445 78.8731V79.4343L78.0129 79.8577C79.272 81.3048 81.0496 83.6442 82.9143 87.0486L82.9148 87.0495C83.5685 88.241 84.2322 89.5651 84.8883 91.0253C83.7348 91.9263 82.3418 92.6602 80.9789 93.2178Z" stroke="url(#paint1_linear_405_521)" stroke-opacity="0.2" stroke-width="3"/>
<path d="M87.6676 122C87.8505 122 88.0354 121.991 88.2209 121.971C91.0651 121.669 93.1253 119.117 92.8231 116.273C91.7688 106.343 89.6111 98.5727 87.2163 92.6556C85.655 94.0432 83.7511 95.0392 82.021 95.7561C80.312 96.4592 78.762 96.8853 77.8435 97.1053C79.7812 102.05 81.5882 108.683 82.5246 117.369C82.8069 120.026 85.0533 121.999 87.6675 122L87.6676 122Z" fill="black"/>
<path d="M86.5416 95.0653C88.5928 100.597 90.3986 107.644 91.3315 116.432L91.3315 116.432C91.5462 118.453 90.0824 120.265 88.0624 120.479L88.0611 120.479C87.9416 120.492 87.8207 120.499 87.6991 120.5L87.6679 120.5C85.8117 120.499 84.2166 119.096 84.0162 117.211L84.016 117.208C83.1605 109.273 81.5854 102.998 79.8278 98.1216C80.6395 97.8775 81.5888 97.5559 82.5917 97.1433L82.5917 97.1433L82.5951 97.1419C83.8507 96.6216 85.2331 95.9457 86.5416 95.0653Z" stroke="url(#paint2_linear_405_521)" stroke-opacity="0.2" stroke-width="3"/>
<path d="M79.0479 56.0192C78.9505 55.662 78.8835 55.379 78.8445 55.1961C78.8239 55.1047 78.8093 55.0384 78.8014 54.9986C78.7981 54.9794 78.7961 54.9668 78.7954 54.9615L78.7948 54.9622C78.4714 53.1636 76.7517 51.9677 74.9527 52.2869C73.1509 52.607 71.9502 54.3279 72.2708 56.1304L72.2701 56.1297C72.3192 56.3477 72.9958 60.2747 75.445 64.4819C76.6776 66.5805 78.3786 68.774 80.7849 70.4942C83.1658 72.2079 86.287 73.3781 89.9091 73.3781H89.9621C91.903 73.3781 93.9765 73.06 96.1746 72.3921C97.9253 71.8613 98.914 70.0091 98.3827 68.2584C97.8519 66.507 96.0004 65.519 94.2497 66.0496C92.595 66.5513 91.1788 66.7488 89.9623 66.7494C87.6821 66.7368 86.0571 66.0967 84.6338 65.098C82.5178 63.6104 80.9587 61.0809 80.0283 58.8518C79.5598 57.7445 79.2417 56.7326 79.0483 56.0189L79.0479 56.0192Z" fill="black"/>
<path d="M78.0001 57.8782L77.8262 58.052L77.3269 55.2748L77.3266 55.2732L77.3258 55.2687L77.3184 55.2276C77.1417 54.2448 76.2012 53.5889 75.215 53.7638L78.0001 57.8782ZM78.0001 57.8782L78.1368 58.3792L78.212 58.3312M78.0001 57.8782L78.212 58.3312M78.212 58.3312C78.3405 58.683 78.4846 59.0526 78.6455 59.4329C79.6278 61.7854 81.3273 64.607 83.7711 66.3251L83.7723 66.3259C85.4288 67.4882 87.3484 68.235 89.954 68.2494V68.2494L89.9631 68.2494C91.3436 68.2487 92.9064 68.0243 94.6848 67.4851C95.6441 67.1944 96.657 67.7363 96.9471 68.6934L96.9473 68.694C97.2383 69.6528 96.6961 70.6665 95.7394 70.9566L95.7384 70.9569C93.6647 71.5871 91.7383 71.8781 89.9621 71.8781H89.9091C86.6177 71.8781 83.8002 70.8164 81.6611 69.2767L81.6572 69.2739C79.4715 67.7114 77.9008 65.7008 76.7399 63.7248C74.568 59.993 73.8728 56.5007 73.7506 55.8844M78.212 58.3312L73.7506 55.8844M73.7506 55.8844L73.7476 55.8677C73.572 54.8803 74.2296 53.939 75.2148 53.7639L73.7506 55.8844Z" stroke="url(#paint3_linear_405_521)" stroke-opacity="0.2" stroke-width="3"/>
<path d="M102.165 35.7141C102.423 34.4802 98.6803 32.6546 93.8051 31.6367C93.6056 31.595 93.4095 31.5586 93.212 31.5214C92.0371 29.5666 90.1491 28.0351 87.7834 27.3599C82.8353 25.9478 77.6785 28.8165 76.2669 33.7653C74.8561 38.7148 77.7241 43.8709 82.6723 45.2825C87.6218 46.6947 92.7786 43.8266 94.1902 38.8771C94.2935 38.516 94.3711 38.1535 94.4294 37.791C93.774 37.6267 93.0994 37.4392 92.4089 37.2225C87.6589 35.7268 84.1149 33.538 84.4941 32.3359C84.4994 32.32 84.5126 32.3068 84.5193 32.2909C84.7764 33.5095 88.3323 35.1582 92.8742 36.1065C96.3824 36.8394 99.5114 36.9494 101.091 36.4961C101.706 36.3198 102.094 36.0601 102.166 35.7142L102.165 35.7141Z" fill="black"/>
<path d="M92.6256 38.8555C92.4055 38.7911 92.1835 38.7239 91.9598 38.6536L91.9584 38.6532C89.5005 37.8793 87.3056 36.9121 85.74 35.9454C84.9672 35.4683 84.2729 34.9458 83.7813 34.3923C83.3636 33.922 82.7134 32.9948 83.0636 31.8847L83.0672 31.8731L83.0711 31.8616C83.103 31.7658 83.1395 31.6876 83.1694 31.6306L84.4579 28.5383C81.3599 28.8458 78.6155 31.0004 77.7094 34.1765L92.6256 38.8555ZM92.6256 38.8555C91.289 42.7676 87.1049 44.9873 83.0838 43.8401L83.0838 43.8401C78.9323 42.6558 76.5257 38.3297 77.7094 34.1768L92.6256 38.8555ZM85.9059 32.243C85.9073 32.2432 85.9146 32.254 85.9237 32.2745C85.9092 32.253 85.9046 32.2427 85.9059 32.243ZM85.2526 28.5004C85.9532 28.503 86.665 28.6006 87.3718 28.8023C89.3565 29.3688 90.939 30.6515 91.9263 32.2942L92.2732 32.8713L92.935 32.9956L92.9802 33.0041C93.1646 33.0388 93.3303 33.0699 93.4978 33.1049L93.4985 33.1051C95.8511 33.5963 97.8803 34.2734 99.2525 34.9426C99.4435 35.0358 99.6159 35.126 99.7704 35.2123C99.2398 35.2653 98.5697 35.2827 97.7719 35.2476C96.4448 35.1891 94.8664 34.9903 93.1809 34.6382L93.1808 34.6381C90.992 34.1811 89.0794 33.5624 87.7154 32.9367C87.0289 32.6217 86.5297 32.3269 86.2123 32.0814C86.0702 31.9715 85.9956 31.8957 85.9606 31.8565L85.2526 28.5004Z" stroke="url(#paint4_linear_405_521)" stroke-opacity="0.2" stroke-width="3"/>
<defs>
<linearGradient id="paint0_linear_405_521" x1="59.9274" y1="91.5108" x2="59.9274" y2="108.445" gradientUnits="userSpaceOnUse">
<stop stop-color="#5230FF"/>
<stop offset="1" stop-color="#1CB48D" stop-opacity="0"/>
</linearGradient>
<linearGradient id="paint1_linear_405_521" x1="69.5199" y1="46.6391" x2="69.5199" y2="98.2553" gradientUnits="userSpaceOnUse">
<stop stop-color="#5230FF"/>
<stop offset="1" stop-color="#1CB48D" stop-opacity="0"/>
</linearGradient>
<linearGradient id="paint2_linear_405_521" x1="85.348" y1="92.6556" x2="85.348" y2="122" gradientUnits="userSpaceOnUse">
<stop stop-color="#5230FF"/>
<stop offset="1" stop-color="#1CB48D" stop-opacity="0"/>
</linearGradient>
<linearGradient id="paint3_linear_405_521" x1="85.3726" y1="52.2354" x2="85.3726" y2="73.3781" gradientUnits="userSpaceOnUse">
<stop stop-color="#5230FF"/>
<stop offset="1" stop-color="#1CB48D" stop-opacity="0"/>
</linearGradient>
<linearGradient id="paint4_linear_405_521" x1="89.0426" y1="27" x2="89.0426" y2="45.6425" gradientUnits="userSpaceOnUse">
<stop stop-color="#5230FF"/>
<stop offset="1" stop-color="#1CB48D" stop-opacity="0"/>
</linearGradient>
</defs>
</svg>
