<svg width="149" height="149" viewBox="0 0 149 149" fill="none" xmlns="http://www.w3.org/2000/svg">
<circle cx="74.5" cy="74.5" r="74.5" fill="#D9D9D9"/>
<path d="M106.525 67.0415C106.508 67.2572 106.459 67.4655 106.366 67.6642C105.749 69.0006 103.625 69.3337 101.621 68.4081C99.6164 67.4845 98.4921 65.6503 99.1091 64.314C99.306 63.8881 99.658 63.5644 100.11 63.3505C99.3438 62.9473 98.5375 62.5877 97.6914 62.3265C93.7013 61.0905 89.8681 62.2981 88.3824 61.3668C88.3257 61.5239 88.2708 61.6829 88.2215 61.8457C86.5899 67.1153 89.539 72.7106 94.8087 74.3421C100.08 75.9756 105.674 73.0247 107.307 67.7549C107.375 67.5373 107.432 67.3177 107.483 67.0981C107.186 67.153 106.866 67.1303 106.525 67.0413L106.525 67.0415Z" fill="black"/>
<path d="M97.9873 61.5174C99.1798 61.8865 100.291 62.4506 101.322 63.0601C102.102 63.009 102.992 63.1737 103.859 63.5749C105.127 64.1598 106.041 65.1082 106.388 66.0659C107.728 66.5221 108.759 66.1246 109.46 63.8588C109.666 63.1907 109.802 62.5169 109.88 61.8468C110.461 56.7269 107.347 51.7543 102.246 50.1756C97.3477 48.6595 92.1934 50.7567 89.6552 54.955C89.2028 55.7027 88.8318 56.5166 88.5612 57.3891C86.7743 63.1564 92.2162 59.7306 97.9874 61.5174L97.9873 61.5174Z" fill="black"/>
<path d="M51.92 63.7222C52.4159 63.6048 54.163 63.2433 56.3511 62.808C59.7241 62.1341 64.2897 61.2407 68.0092 60.5157C69.4913 60.228 70.837 59.9649 71.9216 59.7548L74.6322 65.3651C64.6856 70.3716 60.1331 76.0783 52.5657 85.0466C51.2994 86.5438 51.1101 88.5067 51.9183 89.7862C55.6093 90.6134 59.2551 91.115 62.7396 91.3876C71.3236 90.6664 82.8698 88.3155 89.2506 87.7231C94.0072 89.1786 101.811 91.0469 110.63 91.062C115.729 91.0601 121.184 90.426 126.562 88.6486C128.423 88.0335 129.435 86.0233 128.82 84.1607C128.205 82.2982 126.195 81.2874 124.332 81.9026C119.841 83.3884 115.139 83.9563 110.63 83.9563C104.297 83.9582 98.3572 82.832 94.0436 81.6981C92.3533 81.2552 90.9167 80.8123 89.7961 80.4394C89.7696 80.3769 89.7469 80.3145 89.7166 80.252L77.1349 54.199C76.4346 52.7509 74.8427 51.9503 73.2622 52.255C73.2603 52.255 67.5458 53.3585 61.7975 54.4848C58.9222 55.047 56.0394 55.6167 53.8516 56.0577C52.7575 56.2792 51.8376 56.4666 51.1675 56.6085C50.8306 56.6805 50.5599 56.7391 50.3385 56.7903C50.2249 56.8168 50.1303 56.8395 50.0091 56.8716C49.9467 56.8887 49.8842 56.9057 49.7669 56.9436C49.7044 56.9625 49.6344 56.9871 49.5075 57.0382C49.3675 57.1064 49.2255 57.1291 48.7391 57.4679C47.1586 58.6301 46.8179 60.8523 47.9781 62.4347C48.9038 63.701 50.5089 64.1723 51.9209 63.7218L51.92 63.7222Z" fill="black"/>
<path d="M35.4059 65.4763C37.5694 67.195 44.836 71.874 45.2828 71.31C45.7295 70.7478 39.1899 65.1546 37.0244 63.4378C34.8571 61.7191 33.7157 61.6282 33.2671 62.1923C32.8223 62.7564 33.2406 63.7596 35.406 65.4763H35.4059Z" fill="black"/>
<path d="M25.739 77.0719C25.6519 77.7856 27.0091 78.4821 31.1337 78.9931C35.2581 79.5042 48.2014 80.2481 48.2882 79.5326C48.3771 78.819 35.5795 76.9186 31.4535 76.4094C27.329 75.8984 25.8301 76.3564 25.739 77.0719Z" fill="black"/>
<path d="M69.7615 43.4723C72.0575 45.0112 79.6762 49.0923 80.0755 48.4938C80.4767 47.8957 73.5072 42.8496 71.2114 41.3107C68.9135 39.7718 67.7683 39.7737 67.367 40.3718C66.9676 40.9681 67.4673 41.9353 69.7614 43.4723L69.7615 43.4723Z" fill="black"/>
<path d="M93.951 105.327C84.1652 107.29 74.0538 108.452 64.1106 107.049C59.9312 106.459 55.5435 104.831 51.2866 105.469C50.1944 105.633 49.1458 105.982 48.1369 106.425C47.5975 106.661 48.0783 107.102 48.5117 106.913C52.5605 105.136 56.7037 106.385 60.8361 107.163C68.6991 108.641 76.645 108.482 84.5608 107.487C90.5931 106.728 96.6105 105.531 102.495 104.004C105.306 103.275 108.39 102.49 110.845 100.864C113.387 99.1808 111.403 97.5662 109.381 96.83C108.357 96.4571 107.277 96.1883 106.203 96.0047C105.791 95.9328 105.327 96.5139 105.902 96.6123C107.53 96.8924 110.006 97.3202 111.081 98.6906C113.192 101.373 95.0035 105.115 93.9511 105.327L93.951 105.327Z" fill="black"/>
<path d="M33.0122 87.4513C32.2134 87.404 31.4317 87.4248 30.6632 87.4967C26.8397 87.8545 23.3569 89.575 20.0178 91.5379C19.8077 91.6609 21.5169 92.6149 22.0166 92.3215C25.1171 90.4987 28.2326 88.9863 31.6226 88.498C33.0517 88.2917 34.5281 88.2633 36.0745 88.4772C44.6625 89.6564 52.1824 95.0227 60.1002 98.1326C61.781 98.7932 63.5887 99.3818 65.4721 99.8683C73.8419 102.032 83.7246 102.162 90.8452 97.4284C91.0762 97.2751 89.3177 96.3325 88.8464 96.6448C86.0356 98.513 82.4657 99.4348 79.1871 99.961C75.3825 100.572 71.5058 100.404 67.7204 99.7415C67.5519 99.7112 67.3835 99.6752 67.2169 99.6431C61.5499 98.5452 56.5245 95.8025 51.3513 93.3587C45.616 90.6501 39.4359 87.8391 33.0116 87.4514L33.0122 87.4513Z" fill="black"/>
</svg>
